<?xml version="1.0" standalone="no"?>
<!DOCTYPE svg PUBLIC "-//W3C//DTD SVG 20010904//EN"
 "http://www.w3.org/TR/2001/REC-SVG-20010904/DTD/svg10.dtd">
<svg version="1.0" xmlns="http://www.w3.org/2000/svg"
 width="841.000000pt" height="875.000000pt" viewBox="0 0 841.000000 875.000000"
 preserveAspectRatio="xMidYMid meet">
<metadata>
Created by potrace 1.16, written by Peter Selinger 2001-2019
</metadata>
<g transform="translate(0.000000,875.000000) scale(0.100000,-0.100000)"
fill="#000000" stroke="none">
<path d="M4246 6809 c-144 -21 -275 -71 -401 -154 -65 -42 -212 -186 -340
-333 -74 -84 -82 -90 -110 -85 -16 3 -36 10 -42 15 -7 6 -13 8 -13 5 0 -2 -33
4 -72 16 -61 17 -111 21 -296 25 -340 6 -563 -23 -825 -109 -337 -110 -634
-303 -922 -600 -218 -225 -369 -437 -511 -713 -106 -208 -172 -374 -310 -786
-62 -184 -131 -388 -153 -454 -23 -65 -46 -148 -52 -185 -5 -36 -20 -103 -31
-149 -18 -73 -19 -90 -9 -138 7 -30 16 -54 20 -54 9 0 10 4 47 185 31 155 92
367 165 580 32 94 74 225 93 292 52 179 97 294 206 523 54 113 105 222 114
243 19 47 118 199 235 362 100 141 359 406 489 502 45 34 150 103 234 154 138
85 165 97 327 149 400 130 544 159 817 167 264 8 405 -19 617 -116 234 -108
327 -208 443 -475 49 -113 53 -114 23 -6 -26 97 -108 244 -177 321 -30 33 -53
61 -51 63 2 2 40 22 84 44 147 76 229 172 242 284 l7 53 13 -50 c18 -69 17
-169 -2 -206 -9 -16 -43 -49 -76 -74 -46 -34 -55 -45 -42 -49 10 -3 146 -4
303 -4 307 2 342 -2 550 -55 217 -55 402 -42 561 39 47 23 109 78 109 95 0 5
5 9 10 9 26 0 -40 -157 -90 -213 -40 -46 -60 -57 -130 -73 -36 -8 -45 -12 -27
-13 58 -2 175 -34 244 -67 109 -52 218 -140 363 -293 71 -75 180 -182 241
-236 200 -179 256 -212 321 -187 35 13 35 7 1 -54 -36 -64 -94 -119 -148 -140
-55 -20 -85 -14 -125 29 -24 25 -18 10 29 -70 74 -126 118 -214 159 -318 30
-78 56 -166 50 -169 -2 0 -78 1 -170 4 l-167 5 -30 45 c-33 52 -70 92 -126
138 l-40 32 140 0 c127 0 145 2 193 25 28 13 52 26 52 29 0 3 -48 5 -107 4
-60 0 -192 5 -294 12 -220 14 -247 10 -408 -69 -58 -28 -110 -51 -117 -51 -27
0 -25 -23 4 -53 l31 -32 -20 -32 -20 -32 -297 6 c-268 5 -299 7 -316 23 -19
18 -18 20 23 66 61 70 57 79 -41 94 -46 7 -153 35 -238 62 -267 86 -347 102
-495 102 -146 0 -179 -7 -355 -81 -58 -24 -145 -60 -195 -80 -101 -39 -165
-70 -165 -79 0 -14 163 10 290 42 239 60 452 84 585 65 l50 -7 -35 -8 c-66
-16 -179 -78 -239 -133 l-61 -55 -262 -34 c-145 -19 -431 -57 -637 -85 -205
-27 -381 -49 -391 -47 -17 3 -15 18 31 198 99 392 228 716 364 918 l23 33 45
-58 c25 -33 53 -65 63 -73 10 -8 41 -64 70 -125 46 -97 53 -106 53 -75 0 19
-13 66 -29 105 -19 43 -30 87 -30 116 0 105 -30 357 -50 414 -28 83 -92 236
-97 232 -1 -2 2 -28 8 -58 9 -50 4 -212 -8 -232 -3 -5 -24 20 -46 55 -54 83
-159 186 -224 221 -56 30 -180 70 -253 82 l-45 7 50 -32 c62 -40 152 -116 164
-139 9 -15 -2 -17 -122 -17 -73 0 -159 -6 -192 -13 -158 -35 -332 -105 -509
-205 -54 -31 -100 -56 -102 -56 -17 0 -234 -130 -329 -197 -216 -154 -328
-257 -439 -403 -119 -157 -127 -173 -50 -98 38 37 105 88 149 114 93 54 217
116 223 110 2 -3 -23 -40 -57 -84 -318 -419 -494 -739 -692 -1262 -55 -145
-104 -318 -129 -452 -11 -62 -28 -150 -37 -195 -25 -126 -53 -139 -123 -56
l-31 38 52 -150 c28 -82 77 -208 108 -280 l56 -130 83 -27 c119 -39 218 -58
340 -64 97 -6 115 -4 186 19 100 32 169 80 233 160 154 192 214 328 252 572
27 175 51 360 61 475 56 643 127 966 280 1273 110 218 234 390 426 586 l131
134 54 -5 c30 -3 91 -15 137 -28 l82 -22 -86 -81 c-115 -108 -263 -281 -337
-392 -155 -237 -311 -654 -348 -932 l-12 -91 -59 -59 c-67 -66 -70 -65 -89 30
-7 32 -16 54 -20 50 -5 -5 -13 -53 -19 -108 -7 -64 -20 -121 -37 -158 -26 -61
-25 -91 2 -134 8 -12 27 -24 42 -28 23 -5 34 -18 57 -70 15 -35 51 -92 78
-126 l50 -62 -18 -106 c-24 -143 -22 -309 5 -429 36 -161 117 -340 212 -469
22 -29 39 -57 39 -63 0 -5 4 -10 9 -10 5 0 3 28 -5 63 -42 175 -43 209 -5 140
16 -29 45 -75 65 -101 56 -77 233 -241 326 -304 138 -92 332 -189 348 -173 3
2 -19 39 -49 82 l-54 78 65 -46 c146 -104 416 -262 620 -364 52 -26 96 -49 98
-50 2 -2 -2 -40 -8 -85 -20 -148 -65 -234 -160 -309 l-50 -40 -41 15 c-76 26
-102 20 -304 -77 -104 -50 -198 -98 -208 -107 -10 -9 -46 -26 -80 -37 -34 -12
-61 -26 -60 -32 3 -14 -129 -50 -228 -63 -94 -12 -156 -34 -192 -68 -25 -23
-28 -33 -24 -67 5 -39 3 -41 -59 -93 -35 -29 -64 -57 -64 -62 0 -5 44 -34 97
-64 l97 -55 21 32 c11 18 45 57 76 87 31 30 61 64 67 76 26 50 -22 111 -95
123 -35 6 -28 9 87 39 138 36 300 87 343 109 26 13 30 11 80 -26 57 -42 226
-134 324 -175 269 -112 827 -208 1298 -223 218 -6 721 10 975 33 242 21 616
15 702 -11 48 -15 62 -16 88 -5 41 17 38 25 -12 39 -164 44 -421 51 -819 23
-587 -42 -845 -46 -1224 -17 -264 21 -622 85 -842 150 -158 48 -338 137 -457
228 l-37 29 188 94 c103 52 195 94 204 94 35 0 28 -19 -18 -55 -35 -27 -53
-35 -71 -30 -43 11 -21 -28 33 -57 49 -26 316 -116 465 -157 240 -65 576 -107
728 -91 456 47 1036 59 1312 27 80 -10 197 -22 260 -28 63 -5 142 -16 175 -23
33 -8 83 -17 110 -20 40 -4 26 3 -78 38 -70 24 -131 46 -134 50 -3 3 36 6 87
6 92 0 93 0 205 -55 62 -31 120 -64 130 -75 10 -11 23 -20 29 -20 17 0 240
163 363 264 59 49 189 171 288 270 l180 181 -35 3 c-56 5 -75 -8 -134 -86 -57
-77 -152 -182 -164 -182 -4 0 -17 19 -29 41 l-23 42 38 46 c49 59 85 111 81
115 -2 2 -33 0 -68 -5 -56 -8 -68 -14 -97 -47 l-34 -37 -25 28 -25 28 -54 -15
c-62 -18 -86 -20 -86 -6 0 23 164 56 445 89 247 30 255 31 255 42 0 16 -84 10
-328 -25 -256 -37 -356 -57 -402 -81 -44 -23 -72 -19 -154 24 -148 76 -365
269 -490 434 l-59 78 128 122 c71 67 134 121 139 119 6 -2 8 0 4 4 -4 4 18 35
50 68 70 76 205 242 256 316 l38 55 -7 -50 c-4 -27 -16 -75 -26 -105 -33 -91
-33 -90 -16 -90 26 0 98 91 138 175 60 123 82 259 60 371 l-8 41 33 -19 c18
-11 58 -22 88 -25 48 -5 56 -3 56 11 0 9 -4 16 -10 16 -19 0 -67 80 -115 192
-26 62 -59 132 -72 155 l-25 42 13 510 c10 415 10 513 -1 526 -9 11 -34 15
-104 15 l-91 0 -33 106 c-31 101 -88 228 -146 327 l-27 45 33 7 c106 23 192
116 237 257 21 64 11 75 -31 34 -84 -82 -128 -53 -533 344 -132 130 -266 253
-297 273 -67 44 -196 107 -219 107 -29 0 -28 12 6 42 19 16 50 61 70 100 31
63 35 79 35 149 0 43 -4 80 -8 83 -14 8 -35 -11 -29 -27 11 -30 -48 -94 -116
-126 -36 -17 -71 -31 -79 -31 -7 0 -58 89 -117 208 -119 238 -169 318 -243
388 -66 62 -123 96 -224 133 -146 53 -327 72 -478 50z m259 -49 c266 -38 417
-134 537 -340 68 -117 219 -412 214 -418 -7 -7 -80 -22 -109 -22 -18 0 -50 18
-100 58 -99 80 -157 118 -230 152 -117 55 -345 101 -492 99 l-60 0 85 -25 c46
-14 86 -27 89 -30 2 -2 -18 -4 -45 -4 -48 0 -148 -14 -184 -25 -15 -5 -19 4
-28 67 -12 78 -75 220 -114 255 -21 18 -21 18 -14 -47 14 -130 -28 -221 -141
-307 -95 -71 -178 -111 -201 -96 -45 32 -132 79 -180 99 -29 12 -53 25 -52 30
2 18 244 284 304 335 211 179 462 256 721 219z m-2513 -1302 c-146 -180 -299
-404 -362 -528 -147 -294 -231 -690 -280 -1325 -24 -316 -32 -371 -66 -485
-72 -238 -199 -384 -378 -435 -161 -47 -339 38 -377 179 -16 57 -4 279 21 397
58 279 269 809 439 1104 174 301 513 767 741 1016 15 17 75 48 155 82 119 49
154 64 163 66 2 1 -23 -32 -56 -71z m2368 -934 c76 -31 261 -122 274 -135 12
-11 -255 -12 -551 -2 l-203 6 38 33 c76 68 265 139 342 129 19 -2 64 -16 100
-31z m1539 -13 c55 -38 115 -101 140 -149 l13 -24 -149 6 c-81 3 -223 9 -315
12 -93 3 -168 9 -168 13 1 3 9 21 18 40 14 30 30 40 102 68 106 42 213 72 263
72 28 1 53 -9 96 -38z m-2036 -718 c-3 -313 -7 -569 -8 -571 -1 -1 -112 38
-246 88 -134 51 -329 122 -434 160 -104 37 -334 120 -510 185 -176 65 -374
136 -441 159 l-121 42 -69 -60 c-84 -72 -173 -116 -253 -123 -55 -5 -60 -4
-76 21 -32 49 -10 89 136 243 72 76 145 146 162 156 24 13 217 42 737 112 388
52 795 108 905 124 110 16 206 29 212 30 10 1 11 -122 6 -566z m1357 537 c514
-11 1038 -23 1164 -26 l229 -7 -7 -371 c-3 -204 -9 -445 -12 -536 l-7 -165
-416 -4 c-482 -4 -426 -18 -491 122 -61 130 -55 127 -237 127 -114 0 -161 -4
-182 -14 -15 -8 -64 -64 -109 -124 -45 -61 -89 -113 -98 -116 -9 -3 -270 -6
-580 -6 l-564 0 0 573 0 573 188 -3 c103 -2 608 -12 1122 -23z m-2962 -554
c53 -19 275 -99 492 -179 582 -214 757 -278 935 -342 88 -32 166 -62 172 -67
7 -6 81 -13 165 -16 l153 -5 100 -50 c121 -60 361 -141 487 -163 109 -20 270
-20 348 -1 l54 13 21 -30 c26 -39 67 -66 152 -101 95 -40 122 -62 167 -139 36
-61 70 -99 97 -108 8 -3 7 -23 -1 -65 -27 -135 -125 -250 -233 -273 -31 -6
-93 -33 -143 -62 -146 -84 -192 -98 -424 -128 -212 -27 -280 -45 -351 -92 -33
-22 -58 -42 -55 -45 2 -3 60 9 128 26 69 16 176 37 239 46 189 26 234 34 290
53 44 15 73 17 154 13 99 -6 101 -7 148 -46 26 -21 47 -43 47 -47 0 -13 -74
-29 -170 -35 l-94 -6 39 -14 c48 -17 127 -10 200 18 l49 19 23 -28 c13 -15 53
-71 90 -126 78 -115 87 -92 -77 -191 -196 -118 -361 -189 -485 -210 -212 -36
-774 55 -1220 197 -192 61 -556 246 -787 401 -99 65 -196 136 -217 156 -41 39
-76 125 -133 324 -17 59 -33 105 -36 102 -8 -7 38 -194 70 -285 35 -99 76
-182 127 -260 20 -30 40 -61 45 -69 12 -20 -109 48 -239 134 -259 172 -438
379 -475 551 -10 46 -2 143 25 304 10 64 -13 -2 -30 -84 -23 -115 -29 -296
-12 -390 17 -97 8 -89 -64 62 -135 279 -165 497 -108 777 25 125 50 198 100
299 43 86 117 196 131 196 5 0 53 -15 106 -34z m3331 -363 c15 -13 101 -198
101 -218 0 -1 -48 -5 -107 -9 -120 -7 -240 -32 -299 -63 -35 -18 -96 -83 -106
-114 -6 -17 -130 -38 -226 -39 -134 0 -321 48 -552 143 l-125 52 409 5 410 5
30 42 c17 23 49 67 71 99 22 31 58 70 79 86 38 27 42 28 166 28 107 0 131 -3
149 -17z m1113 -348 c26 -60 57 -122 68 -137 25 -34 22 -34 -39 -3 -47 23
-101 76 -101 97 0 6 -2 9 -5 7 -2 -3 5 -33 15 -68 32 -101 28 -240 -10 -353
-29 -85 -78 -184 -87 -175 -2 2 1 25 6 49 19 84 30 223 23 273 l-8 50 -8 -64
c-13 -112 -67 -195 -296 -456 -85 -97 -202 -220 -259 -272 l-105 -95 -68 74
c-37 40 -67 75 -68 78 0 3 24 4 52 2 33 -2 76 4 113 16 l60 20 -56 1 c-105 2
-158 18 -204 60 -51 47 -86 66 -148 82 -26 6 -47 13 -47 16 0 2 11 19 24 36
37 49 116 217 116 247 0 16 7 31 19 36 29 14 277 276 297 315 11 20 18 54 17
85 l0 51 28 -11 c24 -8 36 -7 65 9 32 17 124 125 124 146 0 5 88 9 200 9 l200
0 0 23 c1 20 2 19 17 -8 9 -16 38 -79 65 -140z m-557 95 c-22 -24 -116 -70
-143 -70 -11 0 -36 13 -57 30 -33 27 -57 36 -130 53 -11 3 63 5 164 6 184 1
184 1 166 -19z m-282 -48 c65 -22 97 -64 97 -131 0 -54 -17 -77 -179 -247 -89
-93 -103 -104 -134 -104 -41 0 -59 15 -89 74 -58 114 -68 122 -235 196 -29 13
-64 35 -78 50 -22 23 -25 31 -16 49 27 50 115 97 230 122 107 24 321 19 404
-9z m-258 -957 c28 -18 75 -55 105 -83 l55 -50 -30 -7 c-33 -7 -80 -28 -107
-47 -28 -20 -31 -2 -10 62 l21 60 -37 24 c-36 23 -37 23 -46 5 -13 -27 -23
-23 -31 11 -5 21 -18 37 -43 50 l-37 21 55 -7 c38 -4 71 -16 105 -39z m281
-296 c43 -62 85 -120 92 -130 12 -16 11 -19 -15 -25 -67 -15 -193 -119 -193
-159 0 -30 -16 -13 -54 58 -22 39 -59 103 -83 140 -42 65 -43 69 -29 100 24
54 59 86 116 106 30 11 62 20 71 20 8 1 50 -47 95 -110z m235 -281 c114 -110
232 -199 330 -249 96 -48 73 -60 -31 -15 -10 4 -21 -5 -35 -31 -22 -40 -44
-50 -112 -52 -51 -1 -52 5 -26 117 18 79 18 79 -40 113 -20 12 -30 -8 -54
-113 -8 -38 -19 -68 -24 -68 -5 0 -36 26 -69 58 l-61 57 19 56 c11 31 27 70
37 88 16 33 16 34 -11 62 l-28 29 -22 -21 c-12 -11 -33 -43 -45 -70 -13 -27
-28 -48 -33 -46 -5 2 -22 22 -39 45 -29 40 -30 42 -12 62 23 25 112 70 140 70
13 0 58 -36 116 -92z m-452 -14 c113 -206 301 -480 426 -621 l47 -53 -49 0
c-29 0 -58 7 -72 17 -14 9 -21 11 -17 5 5 -9 -8 -12 -46 -12 -44 0 -72 9 -157
50 -57 28 -160 74 -229 101 -69 28 -146 62 -171 77 -96 56 -191 180 -206 267
-5 29 -2 31 103 83 59 28 152 81 207 116 55 35 103 64 106 65 3 1 29 -42 58
-95z m-1719 -441 c106 -86 255 -157 375 -178 37 -7 36 -5 -27 28 -114 60 -184
120 -202 174 -17 49 -21 83 -9 83 3 0 36 -12 72 -26 182 -73 355 -106 556
-106 158 0 269 16 417 63 l98 31 56 -50 c69 -62 131 -95 299 -162 117 -47 289
-130 282 -136 -2 -2 -32 1 -67 6 -36 5 -146 16 -245 26 -209 19 -536 14 -870
-12 -110 -9 -290 -17 -400 -18 -178 -1 -217 2 -359 27 -163 29 -285 58 -414
97 l-73 22 67 39 c102 60 183 121 248 187 l60 60 35 -51 c20 -28 65 -75 101
-104z"/>
<path d="M4117 4163 c-3 -5 -8 -189 -12 -410 l-8 -401 489 5 c404 4 491 8 500
19 13 16 31 764 20 783 -8 12 -982 16 -989 4z m681 -187 c18 -63 32 -126 32
-141 l0 -27 -30 25 c-53 45 -158 62 -370 61 -102 -1 -206 -6 -232 -11 l-48
-10 0 108 0 109 308 0 308 0 32 -114z m227 -231 l0 -345 -33 0 -32 0 7 57 6
57 -25 -19 c-14 -11 -49 -39 -77 -62 -51 -41 -71 -51 -71 -36 0 4 41 49 91 99
78 78 90 95 87 120 -3 28 -6 26 -148 -96 l-144 -125 -273 -3 -273 -4 0 173 c0
96 4 169 9 163 4 -5 14 -31 21 -57 25 -91 97 -174 179 -203 55 -20 138 -17
186 6 65 31 117 122 155 266 10 42 10 42 46 34 20 -5 38 -11 42 -14 9 -9 -24
-148 -51 -216 -14 -33 -22 -60 -20 -60 3 0 68 63 144 139 l139 139 0 74 c0
128 12 258 24 258 8 0 11 -101 11 -345z"/>
<path d="M5715 4141 c-4 -7 -4 -176 0 -377 l8 -364 398 0 c303 0 400 3 405 12
11 18 18 708 8 718 -15 14 -810 24 -819 11z m732 -75 c2 -2 7 -147 10 -321 l6
-318 -39 6 c-21 4 -54 7 -72 7 -32 0 -32 0 -18 28 22 42 43 57 60 43 11 -9 15
-7 19 10 5 20 3 21 -34 16 l-40 -5 36 49 c19 27 33 49 31 49 -3 0 -53 -45
-112 -100 -94 -87 -113 -100 -143 -100 l-35 0 39 41 c22 22 88 84 148 136 89
80 107 101 107 124 0 16 -3 29 -6 29 -3 0 -63 -53 -133 -117 -224 -209 -232
-210 -49 -7 l118 131 19 84 c11 46 23 110 26 141 l7 57 -116 3 c-113 3 -117 2
-111 -17 3 -11 8 -48 12 -83 l6 -63 -51 35 c-70 46 -158 75 -279 88 l-103 12
0 28 0 29 347 -6 c191 -3 348 -7 350 -9z m-342 -234 c-19 -163 -115 -331 -218
-381 -25 -12 -63 -21 -90 -21 l-47 0 0 79 0 79 48 -15 c55 -17 130 -12 166 12
37 25 72 108 92 217 16 89 19 96 36 87 15 -8 17 -18 13 -57z"/>
<path d="M5764 493 c-22 -24 -64 -119 -64 -147 0 -7 -11 -30 -25 -50 l-24 -36
36 15 c19 8 37 15 39 15 2 0 12 30 23 68 11 37 28 77 37 90 l16 24 30 -29 c16
-15 36 -40 44 -56 12 -22 18 -26 33 -17 27 14 16 43 -35 94 -56 56 -79 62
-110 29z"/>
<path d="M3613 341 c-92 -31 -163 -102 -163 -163 0 -15 5 -48 12 -72 9 -34 17
-45 35 -49 27 -5 27 0 10 68 -18 70 -12 89 40 135 76 67 155 78 221 30 51 -37
72 -76 72 -135 0 -36 7 -57 33 -93 32 -47 46 -62 59 -62 12 0 -11 64 -34 94
-15 22 -21 42 -19 73 2 50 -15 86 -61 129 -75 70 -111 78 -205 45z"/>
</g>
</svg>
